<svg width="128" height="128" xmlns="http://www.w3.org/2000/svg">

 <g>
  <title>background</title>
  <rect fill="none" id="canvas_background" height="402" width="582" y="-1" x="-1"/>
 </g>
 <g>
  <title>Layer 1</title>
  <path fill="#ffffff" id="svg_1" d="m64.049,114.172l0,-2l-0.006,2c-27.642,0 -50.129,-22.486 -50.129,-50.128c0,-27.642 22.487,-50.13 50.129,-50.13s50.129,22.488 50.129,50.13c0,27.642 -22.485,50.128 -50.123,50.128zm-0.006,-96.258c-25.436,0 -46.129,20.694 -46.129,46.13c0,25.436 20.693,46.128 46.129,46.128l0.006,0c25.433,0 46.123,-20.692 46.123,-46.128c0,-25.436 -20.693,-46.13 -46.129,-46.13z"/>
  <path fill="#ffffff" id="svg_3" d="m64.043,74.354c-1.104,0 -2,-0.896 -2,-2l0,-9.756c0,-1.104 0.896,-2 2,-2c5.27,0 9.557,-4.286 9.557,-9.556c0,-5.271 -4.287,-9.56 -9.557,-9.56s-9.557,4.289 -9.557,9.56c0,1.104 -0.896,2 -2,2s-2,-0.896 -2,-2c0,-7.477 6.081,-13.56 13.557,-13.56s13.557,6.083 13.557,13.56c0,6.796 -5.026,12.439 -11.557,13.409l0,7.903c0,1.104 -0.896,2 -2,2z"/>
  <circle fill="#ffffff" id="svg_4" r="3.796" cy="85.098" cx="64.042"/>
 </g>
</svg>