<?xml version="1.0" ?><!DOCTYPE svg  PUBLIC '-//W3C//DTD SVG 1.1//EN'  'http://www.w3.org/Graphics/SVG/1.1/DTD/svg11.dtd'><svg height="32px" id="Layer_1" style="enable-background:new 0 0 32 32;" version="1.1" viewBox="0 0 32 32" width="32px" xml:space="preserve" xmlns="http://www.w3.org/2000/svg" xmlns:xlink="http://www.w3.org/1999/xlink"><g transform="translate(240 96)"><path d="M-224-96c-8.836,0-16,7.164-16,16c0,8.836,7.164,16,16,16s16-7.164,16-16C-208-88.836-215.164-96-224-96z M-224-66   c-7.72,0-14-6.281-14-14c0-7.719,6.28-14,14-14c7.719,0,14,6.281,14,14C-210-72.281-216.283-66-224-66z M-219.029-79.385   c0.382,0.645,0.572,1.396,0.572,2.258c0,1.322-0.395,2.424-1.182,3.305c-0.787,0.883-1.924,1.402-3.41,1.559v2.265h-1.895v-2.253   c-2.48-0.254-4.014-1.694-4.605-4.319l2.93-0.765c0.271,1.65,1.172,2.476,2.695,2.476c0.713,0,1.24-0.176,1.576-0.528   c0.336-0.354,0.504-0.779,0.504-1.279c0-0.519-0.168-0.91-0.504-1.176c-0.336-0.269-1.084-0.605-2.242-1.017   c-1.041-0.36-1.854-0.717-2.439-1.072c-0.588-0.353-1.063-0.846-1.43-1.48c-0.363-0.637-0.549-1.379-0.549-2.223   c0-1.107,0.328-2.105,0.98-2.992c0.652-0.885,1.68-1.426,3.082-1.623v-1.748h1.895v1.748c2.117,0.254,3.488,1.451,4.111,3.594   l-2.609,1.07c-0.51-1.469-1.295-2.203-2.361-2.203c-0.532,0-0.965,0.164-1.285,0.492c-0.323,0.328-0.485,0.727-0.485,1.193   c0,0.477,0.156,0.842,0.47,1.098c0.311,0.254,0.979,0.568,2.004,0.945c1.125,0.41,2.008,0.799,2.646,1.164   c0.638,0.365,1.147,0.871,1.532,1.515V-79.385L-219.029-79.385z"/></g></svg>