<svg width="78" height="78" xmlns="http://www.w3.org/2000/svg">

 <g>
  <title>background</title>
  <rect fill="none" id="canvas_background" height="402" width="582" y="-1" x="-1"/>
 </g>
 <g>
  <title>Layer 1</title>
  <path id="svg_2" fill="#ffffff" d="m39,0c-21.539,0 -39,17.461 -39,39s17.461,39 39,39s39,-17.461 39,-39s-17.461,-39 -39,-39zm0,72c-18.197,0 -33,-14.804 -33,-33s14.803,-33 33,-33s33,14.804 33,33s-14.803,33 -33,33z"/>
  <path id="svg_3" fill="#ffffff" d="m54,45.401c0,-2.139 -0.553,-4.014 -1.641,-5.57c-1.082,-1.563 -2.461,-2.688 -4.102,-3.336c-1.75,-0.692 -4.738,-1.511 -8.881,-2.43c-2.664,-0.588 -3.447,-1.085 -3.838,-1.454c-0.602,-0.58 -0.91,-1.327 -0.91,-2.151c0,-1.233 0.594,-3.311 4.582,-3.311c2.047,0 3.709,0.581 4.949,1.729c0.41,0.384 0.768,0.846 1.074,1.349l0.012,0.014l0.063,0.115c0.146,0.251 0.408,0.408 0.703,0.408l6.387,0c0.451,0 0.816,-0.362 0.816,-0.813c-0.002,-0.136 -0.117,-0.547 -0.238,-0.871c-1.699,-4.448 -5.045,-7.014 -10.201,-7.867l0,-3.689c0,-0.687 -0.563,-1.248 -1.254,-1.248l-5.004,0c-0.682,0 -1.242,0.562 -1.242,1.248l0,3.829c-3.076,0.628 -5.416,1.866 -6.961,3.688c-1.73,2.077 -2.58,4.38 -2.58,7.044c0,2.39 0.766,4.44 2.334,6.287c1.564,1.84 5.463,3.397 11.607,4.657c1.766,0.354 2.994,0.791 3.756,1.318c0.904,0.618 1.387,1.55 1.387,2.667c0,1.491 -0.891,3.254 -5.115,3.254c-1.434,0 -2.656,-0.213 -3.711,-0.675c-1.482,-0.628 -2.611,-1.705 -3.34,-3.212l-0.045,-0.076l-0.016,-0.054c-0.135,-0.264 -0.412,-0.438 -0.715,-0.438l-7.063,0c-0.443,0 -0.814,0.368 -0.814,0.785c0.01,0.121 0.066,0.374 0.064,0.383c1.688,5.508 5.361,8.655 11.211,9.624l0,3.871c0,0.688 0.561,1.249 1.242,1.249l5.004,0c0.691,0 1.254,-0.562 1.254,-1.249l0,-3.865c3.348,-0.543 6.041,-1.752 7.998,-3.62c2.171,-2.053 3.228,-4.542 3.228,-7.59z"/>
 </g>
</svg>